<svg width="57" height="64" viewBox="0 0 57 64" fill="none" xmlns="http://www.w3.org/2000/svg">
<path d="M5.96512 48.1224C9.63859 48.1224 17.6269 29.5802 23.3412 26.6647C23.3412 25.6735 23.0497 23.9825 21.8835 23.9825C16.5774 23.9825 10.28 40.0175 5.38203 44.7405C5.26541 45.7901 5.26541 47.3061 5.96512 48.1224ZM23.108 48.0641C26.6648 47.5977 33.3704 38.5598 37.9768 31.2128L35.4112 28.7055C32.9039 33.6618 24.2742 44.5656 21.7086 44.9738C21.5919 46.1399 21.8252 47.656 23.108 48.0641Z" fill="#99ABBC"/>
<path d="M48.9512 23.0496C51.6917 18.9679 55.3069 11.5044 55.3069 6.5481C54.7821 5.38192 53.8491 4.44897 52.4497 4.44897C52.6246 7.53935 50.2923 13.3703 46.2107 20.4257L48.9512 23.0496ZM30.4672 31.2711C36.9395 31.2711 40.3797 29.3469 46.8521 29.3469L44.2865 26.7813C39.7967 26.7813 34.199 28.6472 27.8433 28.6472L30.4672 31.2711Z" fill="#99ABBC"/>
<path d="M5.96501 48.1224C5.26531 47.3061 5.26531 45.7901 5.38192 44.7405C7.1895 34.7697 16.8105 14.0117 16.8105 6.60641C16.8105 4.56559 14.5948 2.69971 12.2624 2.69971C12.7289 3.22449 13.137 4.50729 13.137 5.73178C13.137 13.7201 2 38.4431 2 44.2741C2 45.8484 3.86589 48.1224 5.96501 48.1224ZM23.1079 48.0641C21.8251 47.656 21.5918 46.1399 21.7085 44.9738C22.1749 40.5423 26.3149 33.0787 26.3149 29.3469C26.3149 24.2157 22.5831 23.9825 21.8834 23.9825C23.0496 23.9825 23.3411 25.6735 23.3411 26.6647C23.3411 32.4373 18.5015 39.0262 18.5015 43.691C18.5015 46.1399 20.2507 48.0641 23.1079 48.0641Z" fill="#D6688B"/>
<path d="M32.8578 62C32.8578 38.9679 46.5604 4.44898 52.4496 4.44898C53.849 4.44898 54.782 5.38192 55.3068 6.5481C55.3068 3.57434 53.6741 2 51.1668 2C41.8957 2 29.7674 38.3265 29.7674 58.9096L32.8578 62Z" fill="#D6688B"/>
</svg>
