<svg width="616" height="64" viewBox="0 0 616 64" fill="none" xmlns="http://www.w3.org/2000/svg">
<path d="M5.96512 48.1224C9.63859 48.1224 17.6269 29.5802 23.3412 26.6647C23.3412 25.6735 23.0497 23.9825 21.8835 23.9825C16.5774 23.9825 10.28 40.0175 5.38203 44.7405C5.26541 45.7901 5.26541 47.3061 5.96512 48.1224ZM23.108 48.0641C26.6648 47.5977 33.3704 38.5598 37.9768 31.2128L35.4112 28.7055C32.9039 33.6618 24.2742 44.5656 21.7086 44.9738C21.5919 46.1399 21.8252 47.656 23.108 48.0641Z" fill="#99ABBC"/>
<path d="M48.9512 23.0496C51.6917 18.9679 55.3069 11.5044 55.3069 6.5481C54.7821 5.38192 53.8491 4.44897 52.4497 4.44897C52.6246 7.53935 50.2923 13.3703 46.2107 20.4257L48.9512 23.0496ZM30.4672 31.2711C36.9395 31.2711 40.3797 29.3469 46.8521 29.3469L44.2865 26.7813C39.7967 26.7813 34.199 28.6472 27.8433 28.6472L30.4672 31.2711Z" fill="#99ABBC"/>
<path d="M5.96501 48.1224C5.26531 47.3061 5.26531 45.7901 5.38192 44.7405C7.1895 34.7697 16.8105 14.0117 16.8105 6.60641C16.8105 4.56559 14.5948 2.69971 12.2624 2.69971C12.7289 3.22449 13.137 4.50729 13.137 5.73178C13.137 13.7201 2 38.4431 2 44.2741C2 45.8484 3.86589 48.1224 5.96501 48.1224ZM23.1079 48.0641C21.8251 47.656 21.5918 46.1399 21.7085 44.9738C22.1749 40.5423 26.3149 33.0787 26.3149 29.3469C26.3149 24.2157 22.5831 23.9825 21.8834 23.9825C23.0496 23.9825 23.3411 25.6735 23.3411 26.6647C23.3411 32.4373 18.5015 39.0262 18.5015 43.691C18.5015 46.1399 20.2507 48.0641 23.1079 48.0641Z" fill="#D6688B"/>
<path d="M32.8578 62C32.8578 38.9679 46.5604 4.44898 52.4496 4.44898C53.849 4.44898 54.782 5.38192 55.3068 6.5481C55.3068 3.57434 53.6741 2 51.1668 2C41.8957 2 29.7674 38.3265 29.7674 58.9096L32.8578 62Z" fill="#D6688B"/>
<path d="M99.9503 41.3925C99.121 45.0413 97.2966 46.6446 93.9241 46.6446C91.4916 46.6446 89.9436 45.8153 89.9436 43.8803C89.9436 41.9453 92.3209 40.5632 95.1404 40.5632C96.8543 40.5632 98.4576 40.8396 99.9503 41.3372V41.3925ZM102.825 42.6087C105.037 43.7697 106.972 45.373 108.52 46.9763C110.289 48.856 111.726 50.6251 112.998 50.6251C114.103 50.6251 114.656 49.8512 114.656 48.8007C114.656 47.0869 113.661 45.4283 112.168 43.9909C110.123 42.1112 107.082 40.0656 103.212 38.9046C103.323 36.9696 103.323 35.0899 103.323 33.0443C103.323 30.8329 103.102 27.1841 102.88 24.0881C104.705 23.8669 106.529 23.7564 108.354 23.7011C110.731 23.5905 111.505 22.9271 111.505 21.7108C111.505 20.2181 109.515 19.61 107.303 19.61C105.755 19.61 102.936 19.7205 102.383 17.5644C102.272 16.2928 102.217 15.0213 102.162 14.1367C102.106 13.4733 101.83 12.9204 100.835 12.5334C99.9503 12.2017 99.121 12.0911 98.0153 12.0911C96.799 12.1464 94.864 12.8098 94.9193 13.6391C94.9193 14.3026 95.638 14.7448 97.0754 15.5741C97.9047 16.127 98.6234 16.6798 98.9551 18.3384C99.121 19.0571 99.2868 19.9417 99.3974 20.9921C88.672 23.3694 83.0329 27.5711 78.1678 33.5972C76.7303 35.3663 76.4539 35.0346 76.6198 33.5972C77.1726 28.9532 80.0475 23.7011 80.9873 20.2734C81.6508 17.8961 81.4849 16.901 80.8768 15.2977C80.158 13.418 77.8913 11.3724 75.6246 10.5984C74.6848 10.2667 73.9661 10.7643 74.4636 11.7594C74.7953 12.4781 75.5693 13.6391 76.2328 15.1318C77.1726 17.1774 77.1173 18.6701 76.6198 21.2132C76.1222 23.7564 72.8604 33.8183 72.8604 41.4478C72.8604 46.0917 73.3026 48.1373 74.0766 50.0723C74.8506 51.952 75.7905 53.0024 77.2832 53.0577C78.3336 53.0577 79.1629 52.5049 79.1629 50.8463C79.1629 49.0772 77.5596 46.3682 77.5596 42.5535C77.5596 40.2315 78.3336 38.3518 79.3288 36.5826C83.0329 30.0589 90.6623 25.8572 99.895 24.4751C100.282 27.6817 100.558 31.2752 100.558 34.3159C100.558 35.4769 100.558 36.7485 100.393 38.2412C99.1763 38.02 97.7941 37.9095 96.412 37.9095C91.0493 37.9095 87.0687 40.5079 87.0687 44.7649C87.0687 48.082 90.3306 50.4593 93.9794 50.4593C98.1811 50.4593 101.775 48.7454 102.715 43.438L102.825 42.6087Z" fill="#D6688B"/>
<path d="M154.517 45.4836C152.582 45.4836 149.265 46.3682 143.626 46.3682C136.052 46.3682 131.629 43.4933 131.629 38.7388C131.629 34.3159 136.218 29.1744 141.525 26.3548C145.063 24.4751 147.883 24.5304 149.873 24.4198C151.698 24.3092 152.969 23.9222 152.969 22.5954C152.969 21.2132 150.924 19.8864 149.099 19.8864C147.275 19.8864 144.676 20.8262 140.419 20.1075C136.273 19.3888 134.061 17.3985 132.237 15.353C131.297 14.3025 130.413 14.8001 130.634 16.1823C131.131 19.1677 133.122 21.3791 135.609 22.3742C136.992 22.9271 138.263 23.2035 139.037 23.3694C139.645 23.4799 139.866 23.7011 139.203 24.1987C133.674 28.3451 128.422 33.9289 128.422 40.2315C128.422 45.4283 133.398 50.6251 144.013 50.6251C153.743 50.6251 157.668 49.4089 157.668 47.5844C157.668 46.0364 156.065 45.4836 154.517 45.4836ZM157.005 9.10571C155.955 9.10571 155.568 10.0456 156.452 10.709C157.668 11.5936 159.327 12.8098 160.543 14.1367C161.594 15.2977 162.147 15.74 162.976 15.74C164.082 15.74 164.8 14.966 164.8 13.805C164.8 10.9854 160.543 9.161 157.005 9.10571ZM152.637 13.6944C151.698 13.6391 151.311 14.5237 151.974 15.1871C153.08 16.2375 154.351 17.3985 155.291 18.5043C156.563 19.997 156.95 20.9368 158.221 20.9368C159.161 20.9368 160.101 20.2734 160.101 19.0018C160.101 16.4034 156.231 13.9708 152.637 13.6944Z" fill="#D6688B"/>
<path d="M182.381 13.1416C181.718 12.6993 180.944 12.8098 180.944 14.0261C180.944 16.2928 183.487 19.3335 185.698 19.3335C186.693 19.3335 187.799 18.836 188.794 18.3937C192.001 16.9563 196.368 14.6895 197.308 14.4131C198.303 14.1367 198.801 14.8001 198.414 15.74C197.253 18.5595 191.282 24.9727 187.688 28.5662C184.703 31.5516 178.898 36.6932 177.074 38.9599C175.747 40.6185 175.691 42.1112 176.742 43.1063C177.737 44.0462 179.174 43.2722 180.335 42.1112C181.718 40.729 182.989 39.0152 186.14 36.0851C189.623 32.8785 194.82 30.6671 198.967 30.6671C204.606 30.6671 207.647 33.6525 207.647 38.2965C207.647 44.7096 199.243 48.9666 188.628 49.9064C186.196 50.1276 186.14 52.0626 188.684 52.0626C202.781 52.0626 212.014 48.2479 212.014 38.8493C212.014 32.7126 206.983 28.3451 200.128 28.3451C195.815 28.3451 192.277 29.6719 189.513 30.8329C191.006 28.6768 198.69 21.6002 202.063 18.6148C203.168 17.6197 204.329 16.7904 204.274 15.4635C204.219 13.4733 200.736 11.5383 198.856 11.5383C197.529 11.5383 196.7 11.87 194.82 12.4781C192.001 13.418 188.02 14.8554 186.14 14.8554C184.758 14.8554 183.542 13.9156 182.381 13.1416Z" fill="#D6688B"/>
<path d="M247.95 27.2394C246.291 26.7418 245.738 28.1239 247.176 29.0638C250.327 31.1094 256.685 34.9793 256.685 41.0607C256.685 45.6494 254.031 50.017 246.623 50.017C243.25 50.017 240.265 48.856 240.265 44.5437C240.265 43.5486 240.376 42.3876 240.541 41.116C241.868 41.2819 243.085 41.3372 244.08 41.3372C247.286 41.3372 247.839 40.1762 247.839 39.181C247.839 38.02 246.844 37.5225 241.205 36.9143C241.979 32.8232 242.974 28.5109 243.582 25.9678C244.577 21.7108 246.181 16.6245 246.181 14.8554C246.181 11.5383 241.868 8.93985 238.938 8.93985C237.667 8.93985 236.616 9.54799 236.616 10.1008C236.616 10.7643 237.777 11.3724 238.828 12.0911C240.652 13.3074 241.537 14.0814 241.537 15.6847C241.537 17.9514 240.652 22.4295 240.044 25.4702C239.491 28.1239 238.606 32.2704 237.943 36.4721C234.018 35.6981 230.148 34.3159 230.148 32.6021C230.148 31.0541 233.631 28.8426 235.787 27.5711C237.832 26.3548 238.275 25.1938 237.722 23.4247C236.782 20.4392 233.41 17.7855 229.816 16.7904C228.6 16.4587 228.102 17.4538 228.821 18.1725C230.59 19.9417 231.751 20.9921 232.47 22.2084C233.354 23.7011 233.41 24.4198 232.47 25.7467C231.253 27.4605 227.605 30.5012 227.605 33.0996C227.605 36.6379 232.912 39.1258 237.39 40.3973C237.224 42.0559 237.114 43.6039 237.114 44.986C237.114 50.8463 242.2 53.5 246.789 53.5C255.745 53.5 260.997 48.3032 260.997 41.7795C260.997 34.4818 254.197 29.1191 247.95 27.2394Z" fill="#D6688B"/>
<path d="M281.121 19.0018C279.905 18.3384 279.075 18.836 279.407 20.2181C280.071 22.9824 283.001 25.4702 284.88 25.4702C286.539 25.4702 287.976 24.7515 290.63 24.0881C293.947 23.2588 302.13 21.7108 305.336 21.4344C306.829 21.3238 307.05 21.3791 306.608 22.8718C303.899 31.9939 295.274 41.6136 282.558 47.4739C280.734 48.3032 281.563 50.2934 283.388 49.7406C299.144 44.7096 306.331 34.6476 310.146 26.2995C311.307 23.7564 313.021 23.7564 313.021 22.0978C313.021 20.5498 309.538 17.5644 307.105 17.5644C305.889 17.5644 305.557 18.2831 303.014 18.6148C298.315 19.2782 287.976 20.6051 285.323 20.6051C283.719 20.6051 282.724 19.8864 281.121 19.0018Z" fill="#D6688B"/>
<path d="M347.419 35.0346C350.957 33.4313 354.109 31.4964 356.32 29.8378C357.647 28.8426 359.748 28.0134 359.748 26.7418C359.748 25.1385 356.818 22.4848 354.993 22.4848C353.832 22.4848 352.837 23.1482 350.847 23.4799C348.47 23.8117 336.196 25.6361 334.206 25.6361C332.713 25.6361 332.216 24.8621 330.723 23.9222C329.894 23.3694 328.898 23.7564 328.954 24.6962C329.12 27.0735 331.442 29.7825 333.377 29.7825C334.925 29.7825 337.247 28.8426 341.559 28.0134C344.544 27.4052 351.621 26.0784 352.837 26.0784C353.556 26.0784 353.556 26.5207 352.892 27.2947C351.289 29.2849 349.354 30.7224 347.143 32.1598C346.313 31.3858 344.765 30.7776 343.549 30.7776C342.333 30.7776 341.117 31.5516 341.117 32.3809C341.117 33.3761 343.162 33.6525 343.162 34.9793C343.162 39.0152 340.453 45.2072 332.437 49.5747C330.557 50.5699 331.442 52.6154 333.432 51.8414C343.162 48.1373 346.535 40.8396 347.364 35.2005L347.419 35.0346Z" fill="#D6688B"/>
<path d="M380.314 20.4945C382.747 22.5401 384.737 24.4198 386.395 26.5759C388.441 29.2296 389.491 29.6166 390.818 29.0638C392.532 28.3451 392.366 25.4149 390.818 23.5352C388.939 21.2132 385.456 19.1124 381.364 18.449C379.651 18.1725 379.042 19.4441 380.314 20.4945ZM380.203 40.9502C379.429 40.5079 378.711 41.0055 378.877 42.0006C379.374 45.0413 382.968 48.1373 385.566 48.1373C387.004 48.1373 388.552 47.1974 390.376 46.2023C400.604 40.6185 409.892 32.4362 414.591 25.4149C415.476 24.0881 413.762 22.8165 412.656 23.9775C406.464 30.4459 397.121 38.4623 387.888 42.5535C386.008 43.3827 384.516 43.3275 383.189 42.664C382.415 42.277 380.977 41.3925 380.203 40.9502Z" fill="#D6688B"/>
<path d="M439.912 21.3238C444.445 21.3238 450.914 19.7758 452.793 19.223C454.507 18.7254 455.558 17.8961 455.558 16.9563C455.558 15.5741 453.18 14.8554 451.688 14.8554C449.863 14.8554 446.049 17.5644 439.691 17.5644C438.032 17.5644 436.816 17.1221 434.826 16.2928C433.83 15.9058 433.278 16.6245 433.775 17.6197C434.715 19.4994 437.037 21.3238 439.912 21.3238ZM461.418 25.0832C460.036 25.0832 456.995 25.7467 451.909 26.6312C447.431 27.4052 433.886 29.6166 430.734 29.6166C428.91 29.6166 427.583 28.5662 426.146 27.8475C425.261 27.4052 424.598 27.9581 424.708 28.7874C425.04 31.2199 427.473 33.9289 429.408 33.9289C431.619 33.9289 437.866 32.2704 443.505 31.2199C444.777 32.4362 444.943 32.9891 444.832 34.0948C444.335 38.794 438.806 46.3682 432.282 50.9569C430.513 52.2284 431.785 53.9976 433.609 53.113C442.676 48.8007 446.823 41.3372 448.813 36.5826C449.255 35.5322 449.808 34.4265 449.808 33.5972C449.808 32.7126 449.089 31.6069 447.21 30.6118C450.969 30.1142 456.829 29.5061 460.036 29.5061C461.805 29.5061 463.353 29.5614 464.569 29.5614C465.896 29.5614 466.67 29.0638 466.67 28.1239C466.67 26.2995 463.795 25.0832 461.418 25.0832ZM459.483 13.9156C458.543 13.8603 458.156 14.7448 458.819 15.4083C459.925 16.4587 461.197 17.6197 462.137 18.7254C463.408 20.2181 463.795 21.158 465.067 21.158C466.007 21.158 466.946 20.4945 466.946 19.223C466.946 16.6245 463.077 14.192 459.483 13.9156ZM463.85 9.32685C462.8 9.32685 462.413 10.2667 463.298 10.9301C464.514 11.8147 466.172 13.031 467.389 14.3578C468.439 15.5188 468.992 15.9611 469.821 15.9611C470.927 15.9611 471.646 15.1871 471.646 14.0261C471.646 11.2066 467.389 9.38214 463.85 9.32685Z" fill="#D6688B"/>
<path d="M493.118 33.1549C495.274 30.9435 496.988 28.8979 498.37 27.1288C498.978 26.2995 499.752 25.3044 499.752 24.3092C499.752 22.5954 496.656 20.3287 494.279 20.3287C492.897 20.3287 492.565 21.158 493.505 22.2084C494.832 23.7011 494.943 24.1987 494.224 25.5808C491.294 30.7224 482.78 38.2965 474.653 43.4933C472.884 44.599 474.045 46.6446 475.98 45.76C480.679 43.5486 486.042 39.7339 490.63 35.5322C490.796 35.8639 490.851 36.1403 490.907 36.4721C491.128 38.2412 491.017 43.1063 490.575 45.4283C490.354 46.6999 490.022 47.4739 490.022 48.469C490.022 50.3487 491.017 51.8414 492.344 51.8414C493.56 51.8414 494.445 50.9569 494.611 49.5747C494.887 46.2576 494.998 39.7892 494.666 36.1403C494.5 34.7029 494.224 34.0948 493.45 33.3761L493.118 33.1549Z" fill="#D6688B"/>
<path d="M527.395 20.4945C529.828 22.5401 531.818 24.4198 533.477 26.5759C535.522 29.2296 536.573 29.6166 537.899 29.0638C539.613 28.3451 539.447 25.4149 537.899 23.5352C536.02 21.2132 532.537 19.1124 528.446 18.449C526.732 18.1725 526.124 19.4441 527.395 20.4945ZM527.285 40.9502C526.511 40.5079 525.792 41.0055 525.958 42.0006C526.455 45.0413 530.049 48.1373 532.647 48.1373C534.085 48.1373 535.633 47.1974 537.457 46.2023C547.685 40.6185 556.973 32.4362 561.672 25.4149C562.557 24.0881 560.843 22.8165 559.737 23.9775C553.545 30.4459 544.202 38.4623 534.969 42.5535C533.09 43.3827 531.597 43.3275 530.27 42.664C529.496 42.277 528.059 41.3925 527.285 40.9502Z" fill="#D6688B"/>
<path d="M600.185 18.1173C598.913 18.1173 597.752 19.2782 596.315 19.4994C592.334 20.1075 589.957 20.4392 587.248 20.0522C587.358 19.3335 587.414 18.6701 587.414 18.062C587.414 15.9611 582.88 13.7497 580.779 13.7497C579.729 13.7497 579.066 14.1367 579.066 14.6895C579.066 15.1871 579.453 15.5741 580.503 16.6245C582.327 18.449 582.549 18.836 582.327 21.7661C581.885 27.5711 578.347 34.2606 574.09 41.0055C573.15 42.4982 574.698 43.6592 576.08 42.3323C580.614 37.9095 585.092 29.3955 586.75 22.8165C587.69 23.5905 588.519 24.0881 589.293 24.0881C591.118 24.0881 595.043 22.5954 598.084 22.1531C598.802 22.0425 599.079 22.2637 598.913 23.1482C596.591 33.8736 589.515 44.1567 579.287 49.8512C577.241 50.9569 578.126 52.8366 580.227 52.0073C592.942 46.921 599.411 35.9192 603.06 25.6361C603.723 23.7564 605.271 23.2035 605.271 21.9872C605.271 20.8815 602.12 18.1173 600.185 18.1173ZM603.502 12.5887C602.562 12.5334 602.175 13.418 602.838 14.0814C603.944 15.1318 605.216 16.2928 606.156 17.3985C607.427 18.8912 607.814 19.8311 609.086 19.8311C610.026 19.8311 610.965 19.1677 610.965 17.8961C610.965 15.2977 607.095 12.8651 603.502 12.5887ZM607.869 8C606.819 8 606.432 8.93985 607.316 9.60328C608.533 10.4878 610.191 11.7041 611.408 13.031C612.458 14.192 613.011 14.6343 613.84 14.6343C614.946 14.6343 615.665 13.8603 615.665 12.6993C615.665 9.87971 611.408 8.05528 607.869 8Z" fill="#D6688B"/>
</svg>
